<svg width="100" viewBox="0 0 390 110" fill="none" xmlns="http://www.w3.org/2000/svg">
<path fill-rule="evenodd" clip-rule="evenodd" d="M18.3785 0.506221C10.9725 2.46422 5.54648 7.13423 2.11448 14.5052C0.651479 17.6462 0.379481 22.8372 0.0904812 53.1332C-0.155519 79.0342 0.0834783 89.3012 1.01248 92.6332C2.78848 99.0012 10.7745 106.867 17.0755 108.453C32.8275 112.42 47.6295 106.14 51.1725 93.9872C52.5105 89.4002 52.5715 89.3452 53.1575 92.1952C54.3005 97.7432 59.3335 104.189 64.5155 106.74C68.6805 108.79 70.8135 109.13 79.3785 109.104C87.6595 109.079 90.0825 108.702 93.4735 106.913C98.8045 104.099 103.479 98.6982 105.012 93.5822L106.236 89.4962L108.149 94.6232C111.852 104.551 120.226 109.634 132.878 109.634C146.711 109.634 156.437 103.168 159.944 91.6402C160.423 90.0662 160.738 92.7602 160.792 98.8842L160.878 108.634H171.32H181.761L182.07 73.3382C182.35 41.2542 182.543 37.7902 184.191 35.2772C186.548 31.6822 190.954 31.8832 191.989 35.6342C192.368 37.0092 192.723 53.9972 192.778 73.3842L192.878 108.634H203.878H214.878V72.8572C214.878 42.0942 215.096 36.7682 216.435 34.8572C218.363 32.1032 222.439 31.9442 223.843 34.5682C224.502 35.7992 224.878 49.6202 224.878 72.5682V108.634H235.878H246.878L247.068 77.8842L247.257 47.1342L247.851 69.1342C248.336 87.0862 248.771 91.8702 250.215 95.1342C254.112 103.945 261.247 108.514 272.43 109.359C280.986 110.007 287.85 108.562 292.992 105.032C296.668 102.508 301.84 94.3832 301.925 90.9992C301.951 89.9732 302.834 91.3422 303.887 94.0402C306.15 99.8342 309.864 104.009 315.378 106.954C318.686 108.721 321.108 109.094 329.378 109.112C338.578 109.132 339.799 108.901 344.645 106.216C354.014 101.025 357.718 92.6922 356.638 79.2372C355.77 68.4222 351.764 62.6482 338.134 52.5692C332.768 48.6012 327.59 44.4672 326.628 43.3832C324.622 41.1242 324.304 35.6082 326.078 33.8342C329.431 30.4812 333.878 34.5042 333.878 40.8892V44.7002L345.128 44.4172C358.23 44.0872 358.155 44.1672 355.415 33.4712C352.301 21.3172 345.232 16.2292 331.378 16.1692C320.052 16.1202 314.413 18.0042 308.654 23.7622C305.049 27.3682 303.764 29.4952 303.25 32.7082L302.576 36.9232L300.693 31.8742C294.254 14.6132 268.943 9.99723 255.688 23.6662C252.644 26.8062 250.589 30.0182 249.835 32.8192C247.726 40.6502 247.021 41.5802 246.94 36.6342C246.758 25.4372 241.165 17.3992 232.669 16.1252C225.071 14.9862 220.175 16.3262 215.921 20.7092L212.171 24.5732L211.104 22.2312C210.517 20.9432 207.939 18.8742 205.375 17.6322C197.302 13.7242 188.065 16.0002 183.834 22.9382L181.885 26.1342L181.882 21.3842L181.878 16.6342H171.378H160.878L160.76 28.3842C160.669 37.5362 160.471 39.1182 159.865 35.5372C158.838 29.4672 156.748 25.6052 152.443 21.8252C143.829 14.2622 125.698 13.7032 115.507 20.6862C111.09 23.7132 106.899 30.1652 106.804 34.0842C106.735 36.9612 106.636 36.8802 105.054 32.6492C104.132 30.1832 101.353 26.0642 98.8785 23.4972C86.7355 10.9022 62.8205 14.1452 54.9665 29.4532L53.1885 32.9192L52.6165 25.3592C51.6875 13.0742 47.1085 5.73223 37.9945 1.91323C33.9405 0.215234 22.5675 -0.600779 18.3785 0.506221ZM29.3075 21.2052C30.5345 22.4332 30.8785 25.0582 30.8785 33.2052V43.6342H41.4165H51.9535L51.6665 52.8842L51.3785 62.1342L41.1285 62.4192L30.8785 62.7042V74.5982C30.8785 84.0772 30.5595 86.8102 29.3075 88.0632C27.0885 90.2812 24.2575 90.0132 22.4355 87.4112C20.1055 84.0862 20.1055 25.1822 22.4355 21.8572C24.2575 19.2552 27.0885 18.9872 29.3075 21.2052ZM82.3075 34.2052C83.6585 35.5572 83.8785 39.5932 83.8785 63.0832C83.8785 92.4612 83.7515 93.1832 78.7085 92.4612C74.2505 91.8222 73.8375 89.0202 74.1175 61.3022C74.3625 37.0502 74.4975 35.3832 76.3195 34.0522C78.8255 32.2222 80.3625 32.2612 82.3075 34.2052ZM135.754 33.9852C136.371 34.7282 137.166 37.4542 137.521 40.0432L138.166 44.7502L149.524 44.4422L160.882 44.1342L160.813 60.6342C160.75 75.6772 160.63 76.7682 159.447 72.9872C157.268 66.0192 152.122 60.1282 140.868 51.7162C129.784 43.4312 128.878 42.3762 128.878 37.7522C128.878 33.2082 133.162 30.8612 135.754 33.9852ZM278.437 34.0522C280.259 35.3832 280.394 37.0502 280.639 61.3022C280.919 89.0202 280.506 91.8222 276.048 92.4612C271.005 93.1832 270.878 92.4612 270.878 63.0832C270.878 39.5932 271.098 35.5572 272.449 34.2052C274.394 32.2612 275.931 32.2222 278.437 34.0522ZM319.449 65.6472C331.618 75.2822 333.878 78.2362 333.878 84.5032C333.878 90.1852 333.069 91.6342 329.893 91.6342C325.934 91.6342 325.018 89.9582 324.678 82.0922L324.378 75.1342L313.628 74.8502L302.878 74.5662V60.4042V46.2412L305.465 51.4322C307.556 55.6292 310.234 58.3512 319.449 65.6472ZM111.41 55.2642C112.748 57.0192 118.505 62.0542 124.203 66.4522C135.311 75.0272 137.878 78.5722 137.878 85.3352C137.878 89.9602 136.49 91.6342 132.653 91.6342C129.103 91.6342 127.878 88.7962 127.878 80.5692V74.6342H117.378H106.878L106.941 60.8842C106.988 50.7932 107.267 47.7912 107.991 49.6042C108.533 50.9632 110.071 53.5102 111.41 55.2642ZM368.76 86.5162C365.289 89.9872 364.878 90.9272 364.878 95.3812C364.878 100.959 367.089 104.658 371.917 107.154C377.348 109.963 383.611 108.331 387.79 103.019C390.298 99.8302 390.631 91.2132 388.362 88.2142C385.716 84.7172 381.501 82.6472 377.01 82.6412C373.266 82.6352 372.089 83.1882 368.76 86.5162Z" fill="black"/>
</svg>
