<svg width="370" height="128" viewBox="0 0 370 128" fill="none" xmlns="http://www.w3.org/2000/svg">
<path fill-rule="evenodd" clip-rule="evenodd" d="M0 64V128H185H370V64V0H185H0V64ZM361 63.5V119H245.5H130V63.5V8H245.5H361V63.5ZM62.576 26.883C65.294 28.541 72 37.191 72 39.04C72 39.423 70.165 39.983 67.922 40.284C65.68 40.584 62.946 41.644 61.848 42.638C59.867 44.431 59.856 44.396 60.53 38.441C61.031 34.013 60.801 31.46 59.656 28.718C57.889 24.49 58.265 24.254 62.576 26.883ZM53.75 28.831C55.778 31.348 55.176 39.661 52 53C48.622 67.187 48.064 78.682 50.524 83.399C51.355 84.993 51.876 86.457 51.681 86.652C51.486 86.847 49.341 85.963 46.913 84.689C42.206 82.217 36.854 74.733 34.987 68.014C33.517 62.721 33.805 48.021 35.49 42.345C39.07 30.291 49.003 22.939 53.75 28.831ZM43.553 33.12C38.522 39.098 35.884 47.501 36.118 56.799C36.369 66.757 37.505 66.868 37.597 56.943C37.706 45.222 39.217 39.822 44.087 33.75C47.711 29.231 47.267 28.706 43.553 33.12ZM157.445 37.959C156.315 38.417 153.953 40.429 152.195 42.43C149.397 45.617 149 46.78 149.004 51.785C149.008 58.466 151.345 63.093 155.906 65.451C159.73 67.429 168.238 67.445 172.033 65.483C174.754 64.076 178 59.488 178 57.05C178 55.115 171.708 55.925 169.323 58.167C166.218 61.084 161.253 61.031 158.844 58.056C156.584 55.265 156.438 49.247 158.557 46.223C160.63 43.263 166.908 43.135 169.5 46C171.44 48.144 178 48.842 178 46.904C178 44.504 174.412 39.949 171.393 38.516C167.963 36.889 160.795 36.602 157.445 37.959ZM191.034 38.752C181.224 43.7 181.174 59.693 190.951 65.403C197.867 69.443 207.941 67.047 212.069 60.382C214.47 56.506 214.606 49.078 212.362 44.351C209.237 37.765 198.551 34.959 191.034 38.752ZM224.704 38.596C221.858 40.139 220 43.515 220 47.142C220 50.769 225.079 54.686 230.802 55.473C234.863 56.031 236 56.579 236 57.977C236 60.456 232.165 61.229 228.627 59.464C224.642 57.476 220 57.537 220 59.577C220 60.444 221.315 62.469 222.923 64.077C225.501 66.655 226.551 67 231.817 67C237.026 67 238.185 66.63 240.894 64.099C243.028 62.105 244 60.263 244 58.21C244 53.646 241.259 51.186 234.5 49.684C229.613 48.599 228.441 47.947 228.18 46.176C227.904 44.294 228.335 44 231.371 44C233.302 44 235.16 44.45 235.5 45C236.33 46.343 243 46.284 243 44.934C243 38.693 231.728 34.788 224.704 38.596ZM251 52.06V67.121L254.75 66.81L258.5 66.5L258.419 60.75C258.374 57.588 258.633 55 258.994 55C259.356 55 260.708 56.125 262 57.5C263.292 58.875 264.913 60 265.602 60C266.291 60 267.74 58.875 268.821 57.5C269.903 56.125 271.038 55 271.344 55C271.65 55 272.035 57.588 272.2 60.75L272.5 66.5H276H279.5L279.779 52.579C279.967 43.247 279.689 38.303 278.936 37.579C278.12 36.796 276.253 38.211 272.114 42.75C268.979 46.188 265.935 49 265.35 49C264.764 49 261.79 46.3 258.741 43C255.691 39.7 252.702 37 252.098 37C251.349 37 251 41.792 251 52.06ZM294.457 38.863C286.023 44.007 284.725 57.225 292.05 63.389C305.275 74.517 323.947 60.343 316.248 45.02C312.497 37.554 301.636 34.485 294.457 38.863ZM329.357 37.992C321.59 41.126 322.546 52.724 330.725 54.578C338.316 56.299 339.392 56.675 339.743 57.728C339.951 58.353 339.178 59.37 338.024 59.987C336.395 60.859 335.23 60.762 332.81 59.555C331.095 58.7 328.412 58 326.846 58C322.952 58 323.061 61.032 327.077 64.411C329.484 66.437 331.235 67 335.126 67C341.654 67 345.545 64.909 346.953 60.643C348.978 54.507 345.96 50.986 337.339 49.432C332.711 48.597 330.932 47.341 331.666 45.427C332.288 43.807 337.559 43.478 338.5 45C339.095 45.963 347 46.472 347 45.547C347 43.589 344.113 39.593 341.855 38.425C338.821 36.856 332.697 36.644 329.357 37.992ZM82.564 45.039C90.515 49.954 95.668 63.423 94.746 76.882C93.552 94.296 82.098 108.19 76.273 99.291C73.661 95.3 74.223 84.995 77.906 69.371C81.39 54.588 81.618 51.415 79.551 46.468C77.864 42.43 78.135 42.302 82.564 45.039ZM203.365 46.073C208.617 50.204 205.719 60 199.246 60C191.384 60 188.087 49.192 194.832 45.529C198.496 43.539 200.29 43.653 203.365 46.073ZM307.545 46.455C312.53 51.439 309.227 60 302.32 60C299.131 60 295 55.756 295 52.48C295 45.095 302.557 41.466 307.545 46.455ZM73.535 47.039C76.12 49.895 75.821 56.344 72.463 70.124C68.966 84.471 68.503 98.03 71.365 102.25C73.492 105.386 73.207 105.531 68.657 103.63C54.018 97.513 49.052 67.682 60.012 51.688C64.417 45.259 70.143 43.29 73.535 47.039ZM61.953 53.735C60.302 56.339 58.459 60.276 57.857 62.485C56.577 67.187 56.49 81.482 57.721 84.79C58.248 86.204 58.42 83.241 58.171 77.044C57.726 65.976 59.159 59.547 63.586 52.75C64.929 50.688 65.787 49 65.492 49C65.197 49 63.605 51.131 61.953 53.735ZM83.195 57.5C83.215 59.15 83.439 59.704 83.693 58.731C83.947 57.758 83.93 56.408 83.656 55.731C83.382 55.054 83.175 55.85 83.195 57.5ZM80.092 71.751C77.466 83.164 76.367 94.053 77.617 96.265C78.189 97.276 78.544 94.95 78.624 89.663C78.693 85.124 79.736 77.364 80.973 72.182C82.197 67.058 83.004 62.671 82.767 62.434C82.53 62.196 81.326 66.389 80.092 71.751ZM155.557 84.223C152.197 89.02 154.885 95 160.402 95C162.423 95 164.389 94.227 165.506 92.994C167.698 90.571 166.673 89.099 163.968 90.788C162.901 91.455 161.362 92 160.549 92C158.415 92 156.96 88.822 158.134 86.724C159.268 84.7 161.265 84.524 163.968 86.212C166.673 87.901 167.698 86.429 165.506 84.006C162.971 81.206 157.588 81.323 155.557 84.223ZM172 84C167.852 88.148 170.966 95 177 95C180.656 95 184 91.894 184 88.5C184 85.106 180.656 82 177 82C175.333 82 173.111 82.889 172 84ZM188 88.5C188 93.781 188.299 95 189.594 95C190.47 95 191.412 94.142 191.686 93.092C191.96 92.043 193.043 90.96 194.092 90.686C196.616 90.026 196.546 88 194 88C192.889 88 192 87.333 192 86.5C192 85.667 192.889 85 194 85C195.111 85 196 84.333 196 83.5C196 82.417 194.889 82 192 82H188V88.5ZM200 88.443C200 94.333 200.203 95 202 95C203.333 95 204 94.333 204 93C204 91.667 204.667 91 206 91C207.111 91 208 90.333 208 89.5C208 88.667 207.111 88 206 88C203.371 88 203.406 85.232 206.04 84.82C209.752 84.238 208.572 82.505 204.25 82.193L200 81.885V88.443ZM213 88.5V95H217C219.889 95 221 94.583 221 93.5C221 92.567 220.056 92 218.5 92C215.432 92 215.171 90.261 218.172 89.82C221.373 89.348 221.716 87 218.583 87C217.163 87 216 86.55 216 86C216 85.45 217.125 85 218.5 85C220.056 85 221 84.433 221 83.5C221 82.417 219.889 82 217 82H213V88.5ZM226 88.5V95H230C232.889 95 234 94.583 234 93.5C234 92.567 233.056 92 231.5 92C230.125 92 229 91.55 229 91C229 90.45 229.9 90 231 90C232.111 90 233 89.333 233 88.5C233 87.667 232.111 87 231 87C229.9 87 229 86.55 229 86C229 85.45 230.125 85 231.5 85C233.056 85 234 84.433 234 83.5C234 82.417 232.889 82 230 82H226V88.5ZM247.546 88.076C246.046 91.418 245.086 94.419 245.411 94.745C245.737 95.07 247.127 94.735 248.502 93.999C250.548 92.904 251.434 92.894 253.401 93.947C254.722 94.654 256.256 95.068 256.811 94.866C257.997 94.435 252.572 82 251.198 82C250.689 82 249.046 84.734 247.546 88.076ZM261 88.5C261 94.333 261.205 95 263 95C264.583 95 265 94.333 265 91.804V88.608L268.298 91.804C270.111 93.562 271.911 95 272.298 95C272.684 95 273 92.075 273 88.5C273 82.667 272.795 82 271 82C269.417 82 269 82.667 269 85.196V88.392L265.702 85.196C263.889 83.438 262.089 82 261.702 82C261.316 82 261 84.925 261 88.5ZM278 88.5V95H281.5C283.667 95 285.762 94.238 287 93C291.348 88.652 288.022 82 281.5 82H278V88.5ZM301.557 84.223C298.197 89.02 300.885 95 306.402 95C308.423 95 310.389 94.227 311.506 92.994C313.698 90.571 312.673 89.099 309.968 90.788C308.901 91.455 307.362 92 306.549 92C304.415 92 302.96 88.822 304.134 86.724C305.268 84.7 307.265 84.524 309.968 86.212C312.673 87.901 313.698 86.429 311.506 84.006C308.971 81.206 303.588 81.323 301.557 84.223ZM319.313 82.786C318.659 83.201 317.625 84.857 317.013 86.466C314.665 92.643 323.205 97.795 327.941 93.059C330.552 90.448 330.577 86.577 328 84C325.995 81.995 321.536 81.372 319.313 82.786ZM179.5 88.5C179.5 91.029 179.11 91.5 177.014 91.5C175.41 91.5 174.404 90.858 174.179 89.692C173.595 86.658 174.832 84.837 177.246 85.18C179.013 85.431 179.5 86.148 179.5 88.5ZM285.034 87.064C285.854 88.596 285.832 89.498 284.947 90.564C282.783 93.171 281 92.239 281 88.5C281 84.491 283.232 83.696 285.034 87.064ZM325.926 86.862C327.371 89.561 325.048 92.467 322.174 91.555C320.07 90.887 319.128 87.206 320.667 85.667C321.976 84.357 324.947 85.032 325.926 86.862ZM252 89C252 89.55 251.523 90 250.941 90C250.359 90 250.16 89.55 250.5 89C250.84 88.45 251.316 88 251.559 88C251.802 88 252 88.45 252 89ZM334 93.5C334 94.325 334.675 95 335.5 95C336.325 95 337 94.325 337 93.5C337 92.675 336.325 92 335.5 92C334.675 92 334 92.675 334 93.5Z" fill="black"/>
</svg>
