<svg width="80" viewBox="0 0 248 115" fill="none" xmlns="http://www.w3.org/2000/svg">
<path fill-rule="evenodd" clip-rule="evenodd" d="M108.252 7.5V15H119.252H130.252V7.5V0H119.252H108.252V7.5ZM15.468 5.826C4.818 9.635 0.770995 16.561 0.759995 31C0.752995 39.474 1.05301 41.072 3.54401 45.8C5.11701 48.786 11.059 55.988 17.158 62.3C23.11 68.46 28.716 74.94 29.616 76.7C31.539 80.462 31.825 91.027 30.052 92.8C28.143 94.709 24.502 94.195 22.809 91.777C21.704 90.201 21.252 87.151 21.252 81.277V73H10.626H0L0.434006 84.25C0.798006 93.667 1.29199 96.425 3.47099 101.177C7.45699 109.869 15.15 113.922 27.752 113.97C38.612 114.011 46.676 108.97 49.804 100.186C50.722 97.609 51.721 94.825 52.026 94C52.33 93.175 52.897 94.783 53.285 97.573C54.933 109.421 61.016 114.682 72.015 113.77C77.203 113.34 77.961 112.948 81.451 108.901L85.247 104.5L85.249 108.75L85.252 113H95.752H106.252V67V21H95.829H85.407L85.037 56.75C84.834 76.413 84.299 93.291 83.849 94.259C82.644 96.851 78.432 97.608 76.417 95.595C74.936 94.115 74.719 89.905 74.455 57.465L74.159 21H63.205H52.252L52.186 24.25C52.131 26.988 51.889 26.634 50.649 22C47.749 11.159 40.071 5.29701 27.622 4.41901C22.457 4.05501 19.441 4.404 15.468 5.826ZM136.038 14.75L135.752 24.5L133.002 24.816C130.787 25.071 130.252 24.731 130.252 23.066C130.252 21.103 129.703 21 119.252 21H108.252V67V113H119.239H130.227L130.489 77.25L130.752 41.5H133.252H135.752L136.252 74C136.628 98.452 137.081 107.078 138.082 108.835C140.623 113.292 147.718 114.857 158.612 113.364L163.252 112.728L163.256 106.114L163.259 99.5L165.115 102.543C169.9 110.389 179.671 114.597 191.193 113.772C207.348 112.616 216.261 103.295 216.246 87.572C216.234 74.487 212.151 67.936 196.83 56.42C190.917 51.975 185.675 47.7 185.181 46.92C183.885 44.872 184.049 39.603 185.452 38.2C188.805 34.847 193.252 38.87 193.252 45.255V49.066L204.502 48.783L215.752 48.5L215.474 43C215.296 39.487 214.212 35.513 212.474 32C210.103 27.209 208.978 26.113 203.752 23.5C198.461 20.854 196.748 20.505 189.252 20.546C178.785 20.603 171.867 23.296 166.708 29.322L163.252 33.36V29.18C163.252 25.202 163.107 25 160.252 25H157.252V15V5H146.788H136.324L136.038 14.75ZM29.052 25.2C29.712 25.86 30.252 28.56 30.252 31.2V36H41.252H52.252L52.242 53.75L52.232 71.5L49.737 66.139C47.97 62.344 43.444 56.886 34.247 47.457C21.755 34.651 20.54 32.836 21.229 28C21.759 24.274 26.448 22.596 29.052 25.2ZM162.512 46.935C163.326 55.906 166.21 60.043 178.252 69.507C192.168 80.445 192.546 80.913 193.048 87.859C193.53 94.526 191.688 97.581 187.897 96.399C184.958 95.483 184.285 94.181 184.267 89.375C184.259 87.106 183.968 83.829 183.621 82.093L182.989 78.935L172.371 79.218L161.752 79.5L161.445 83.188C161.277 85.216 161.549 89.13 162.05 91.887C163.006 97.151 162.105 98.648 158.752 97.362C157.468 96.869 157.252 92.764 157.252 68.893V41H159.613C161.769 41 162.021 41.516 162.512 46.935ZM228.125 91.684C220.259 96.566 220.352 108.674 228.292 113.364C229.815 114.264 233.135 115 235.671 115C239.526 115 240.893 114.439 244.017 111.577C247.486 108.397 247.752 107.752 247.752 102.5C247.752 97.248 247.486 96.603 244.017 93.423C240.842 90.513 239.567 90.004 235.517 90.027C232.896 90.041 229.57 90.787 228.125 91.684Z" fill="black"/>
</svg>
